<svg width="225" height="29" viewBox="0 0 225 29" fill="none"
  xmlns="http://www.w3.org/2000/svg">
  <path d="M7.29 23.18C5.97 23.18 4.71 23 3.51 22.64C2.33 22.28 1.4 21.84 0.72 21.32L1.92 19.04C2.6 19.5 3.44 19.89 4.44 20.21C5.44 20.53 6.46 20.69 7.5 20.69C8.84 20.69 9.8 20.5 10.38 20.12C10.98 19.74 11.28 19.21 11.28 18.53C11.28 18.03 11.1 17.64 10.74 17.36C10.38 17.08 9.9 16.87 9.3 16.73C8.72 16.59 8.07 16.47 7.35 16.37C6.63 16.25 5.91 16.11 5.19 15.95C4.47 15.77 3.81 15.53 3.21 15.23C2.61 14.91 2.13 14.48 1.77 13.94C1.41 13.38 1.23 12.64 1.23 11.72C1.23 10.76 1.5 9.92 2.04 9.2C2.58 8.48 3.34 7.93 4.32 7.55C5.32 7.15 6.5 6.95 7.86 6.95C8.9 6.95 9.95 7.08 11.01 7.34C12.09 7.58 12.97 7.93 13.65 8.39L12.42 10.67C11.7 10.19 10.95 9.86 10.17 9.68C9.39 9.5 8.61 9.41 7.83 9.41C6.57 9.41 5.63 9.62 5.01 10.04C4.39 10.44 4.08 10.96 4.08 11.6C4.08 12.14 4.26 12.56 4.62 12.86C5 13.14 5.48 13.36 6.06 13.52C6.66 13.68 7.32 13.82 8.04 13.94C8.76 14.04 9.48 14.18 10.2 14.36C10.92 14.52 11.57 14.75 12.15 15.05C12.75 15.35 13.23 15.77 13.59 16.31C13.97 16.85 14.16 17.57 14.16 18.47C14.16 19.43 13.88 20.26 13.32 20.96C12.76 21.66 11.97 22.21 10.95 22.61C9.93 22.99 8.71 23.18 7.29 23.18ZM26.1893 23.18C24.8693 23.18 23.6593 22.88 22.5593 22.28C21.4793 21.66 20.6093 20.75 19.9493 19.55C19.3093 18.35 18.9893 16.85 18.9893 15.05C18.9893 13.25 19.2993 11.75 19.9193 10.55C20.5593 9.35 21.4193 8.45 22.4993 7.85C23.5993 7.25 24.8293 6.95 26.1893 6.95C27.7493 6.95 29.1293 7.29 30.3293 7.97C31.5293 8.65 32.4793 9.6 33.1793 10.82C33.8793 12.02 34.2293 13.43 34.2293 15.05C34.2293 16.67 33.8793 18.09 33.1793 19.31C32.4793 20.53 31.5293 21.48 30.3293 22.16C29.1293 22.84 27.7493 23.18 26.1893 23.18ZM17.7593 28.82V7.1H20.5193V11.39L20.3393 15.08L20.6393 18.77V28.82H17.7593ZM25.9493 20.66C26.9693 20.66 27.8793 20.43 28.6793 19.97C29.4993 19.51 30.1393 18.86 30.5993 18.02C31.0793 17.16 31.3193 16.17 31.3193 15.05C31.3193 13.91 31.0793 12.93 30.5993 12.11C30.1393 11.27 29.4993 10.62 28.6793 10.16C27.8793 9.7 26.9693 9.47 25.9493 9.47C24.9493 9.47 24.0393 9.7 23.2193 10.16C22.4193 10.62 21.7793 11.27 21.2993 12.11C20.8393 12.93 20.6093 13.91 20.6093 15.05C20.6093 16.17 20.8393 17.16 21.2993 18.02C21.7793 18.86 22.4193 19.51 23.2193 19.97C24.0393 20.43 24.9493 20.66 25.9493 20.66ZM38.2085 23V7.1H41.0885V23H38.2085ZM39.6485 4.04C39.0885 4.04 38.6185 3.86 38.2385 3.5C37.8785 3.14 37.6985 2.7 37.6985 2.18C37.6985 1.64 37.8785 1.19 38.2385 0.829999C38.6185 0.469999 39.0885 0.289999 39.6485 0.289999C40.2085 0.289999 40.6685 0.469999 41.0285 0.829999C41.4085 1.17 41.5985 1.6 41.5985 2.12C41.5985 2.66 41.4185 3.12 41.0585 3.5C40.6985 3.86 40.2285 4.04 39.6485 4.04ZM55.0774 6.95C56.3774 6.95 57.5174 7.2 58.4974 7.7C59.4974 8.2 60.2774 8.96 60.8374 9.98C61.3974 11 61.6774 12.29 61.6774 13.85V23H58.7974V14.18C58.7974 12.64 58.4174 11.48 57.6574 10.7C56.9174 9.92 55.8674 9.53 54.5074 9.53C53.4874 9.53 52.5974 9.73 51.8374 10.13C51.0774 10.53 50.4874 11.12 50.0674 11.9C49.6674 12.68 49.4674 13.65 49.4674 14.81V23H46.5874V7.1H49.3474V11.39L48.8974 10.25C49.4174 9.21 50.2174 8.4 51.2974 7.82C52.3774 7.24 53.6374 6.95 55.0774 6.95ZM73.5773 23.18C72.0373 23.18 70.6573 22.84 69.4373 22.16C68.2373 21.48 67.2873 20.53 66.5873 19.31C65.8873 18.09 65.5373 16.67 65.5373 15.05C65.5373 13.43 65.8873 12.02 66.5873 10.82C67.2873 9.6 68.2373 8.65 69.4373 7.97C70.6573 7.29 72.0373 6.95 73.5773 6.95C74.9173 6.95 76.1273 7.25 77.2073 7.85C78.2873 8.45 79.1473 9.35 79.7873 10.55C80.4473 11.75 80.7773 13.25 80.7773 15.05C80.7773 16.85 80.4573 18.35 79.8173 19.55C79.1973 20.75 78.3473 21.66 77.2673 22.28C76.1873 22.88 74.9573 23.18 73.5773 23.18ZM73.8173 20.66C74.8173 20.66 75.7173 20.43 76.5173 19.97C77.3373 19.51 77.9773 18.86 78.4373 18.02C78.9173 17.16 79.1573 16.17 79.1573 15.05C79.1573 13.91 78.9173 12.93 78.4373 12.11C77.9773 11.27 77.3373 10.62 76.5173 10.16C75.7173 9.7 74.8173 9.47 73.8173 9.47C72.7973 9.47 71.8873 9.7 71.0873 10.16C70.2873 10.62 69.6473 11.27 69.1673 12.11C68.6873 12.93 68.4473 13.91 68.4473 15.05C68.4473 16.17 68.6873 17.16 69.1673 18.02C69.6473 18.86 70.2873 19.51 71.0873 19.97C71.8873 20.43 72.7973 20.66 73.8173 20.66ZM79.2473 23V18.71L79.4273 15.02L79.1273 11.33V0.739999H82.0073V23H79.2473ZM94.2666 23.18C92.6666 23.18 91.2466 22.83 90.0066 22.13C88.7666 21.43 87.7866 20.47 87.0666 19.25C86.3466 18.01 85.9866 16.61 85.9866 15.05C85.9866 13.47 86.3466 12.07 87.0666 10.85C87.7866 9.63 88.7666 8.68 90.0066 8C91.2466 7.3 92.6666 6.95 94.2666 6.95C95.8466 6.95 97.2566 7.3 98.4966 8C99.7566 8.68 100.737 9.63 101.437 10.85C102.157 12.05 102.517 13.45 102.517 15.05C102.517 16.63 102.157 18.03 101.437 19.25C100.737 20.47 99.7566 21.43 98.4966 22.13C97.2566 22.83 95.8466 23.18 94.2666 23.18ZM94.2666 20.66C95.2866 20.66 96.1966 20.43 96.9966 19.97C97.8166 19.51 98.4566 18.86 98.9166 18.02C99.3766 17.16 99.6066 16.17 99.6066 15.05C99.6066 13.91 99.3766 12.93 98.9166 12.11C98.4566 11.27 97.8166 10.62 96.9966 10.16C96.1966 9.7 95.2866 9.47 94.2666 9.47C93.2466 9.47 92.3366 9.7 91.5366 10.16C90.7366 10.62 90.0966 11.27 89.6166 12.11C89.1366 12.93 88.8966 13.91 88.8966 15.05C88.8966 16.17 89.1366 17.16 89.6166 18.02C90.0966 18.86 90.7366 19.51 91.5366 19.97C92.3366 20.43 93.2466 20.66 94.2666 20.66ZM134.38 23.18C132.68 23.18 131.18 22.83 129.88 22.13C128.6 21.43 127.6 20.47 126.88 19.25C126.18 18.03 125.83 16.63 125.83 15.05C125.83 13.47 126.17 12.07 126.85 10.85C127.55 9.63 128.5 8.68 129.7 8C130.92 7.3 132.29 6.95 133.81 6.95C135.35 6.95 136.71 7.29 137.89 7.97C139.07 8.65 139.99 9.61 140.65 10.85C141.33 12.07 141.67 13.5 141.67 15.14C141.67 15.26 141.66 15.4 141.64 15.56C141.64 15.72 141.63 15.87 141.61 16.01H128.08V13.94H140.11L138.94 14.66C138.96 13.64 138.75 12.73 138.31 11.93C137.87 11.13 137.26 10.51 136.48 10.07C135.72 9.61 134.83 9.38 133.81 9.38C132.81 9.38 131.92 9.61 131.14 10.07C130.36 10.51 129.75 11.14 129.31 11.96C128.87 12.76 128.65 13.68 128.65 14.72V15.2C128.65 16.26 128.89 17.21 129.37 18.05C129.87 18.87 130.56 19.51 131.44 19.97C132.32 20.43 133.33 20.66 134.47 20.66C135.41 20.66 136.26 20.5 137.02 20.18C137.8 19.86 138.48 19.38 139.06 18.74L140.65 20.6C139.93 21.44 139.03 22.08 137.95 22.52C136.89 22.96 135.7 23.18 134.38 23.18ZM149.546 23L142.586 7.1H145.586L151.766 21.5H150.326L156.626 7.1H159.446L152.486 23H149.546ZM168.775 23.18C167.075 23.18 165.575 22.83 164.275 22.13C162.995 21.43 161.995 20.47 161.275 19.25C160.575 18.03 160.225 16.63 160.225 15.05C160.225 13.47 160.565 12.07 161.245 10.85C161.945 9.63 162.895 8.68 164.095 8C165.315 7.3 166.685 6.95 168.205 6.95C169.745 6.95 171.105 7.29 172.285 7.97C173.465 8.65 174.385 9.61 175.045 10.85C175.725 12.07 176.065 13.5 176.065 15.14C176.065 15.26 176.055 15.4 176.035 15.56C176.035 15.72 176.025 15.87 176.005 16.01H162.475V13.94H174.505L173.335 14.66C173.355 13.64 173.145 12.73 172.705 11.93C172.265 11.13 171.655 10.51 170.875 10.07C170.115 9.61 169.225 9.38 168.205 9.38C167.205 9.38 166.315 9.61 165.535 10.07C164.755 10.51 164.145 11.14 163.705 11.96C163.265 12.76 163.045 13.68 163.045 14.72V15.2C163.045 16.26 163.285 17.21 163.765 18.05C164.265 18.87 164.955 19.51 165.835 19.97C166.715 20.43 167.725 20.66 168.865 20.66C169.805 20.66 170.655 20.5 171.415 20.18C172.195 19.86 172.875 19.38 173.455 18.74L175.045 20.6C174.325 21.44 173.425 22.08 172.345 22.52C171.285 22.96 170.095 23.18 168.775 23.18ZM188.554 6.95C189.854 6.95 190.994 7.2 191.974 7.7C192.974 8.2 193.754 8.96 194.314 9.98C194.874 11 195.154 12.29 195.154 13.85V23H192.274V14.18C192.274 12.64 191.894 11.48 191.134 10.7C190.394 9.92 189.344 9.53 187.984 9.53C186.964 9.53 186.074 9.73 185.314 10.13C184.554 10.53 183.964 11.12 183.544 11.9C183.144 12.68 182.944 13.65 182.944 14.81V23H180.064V7.1H182.824V11.39L182.374 10.25C182.894 9.21 183.694 8.4 184.774 7.82C185.854 7.24 187.114 6.95 188.554 6.95ZM205.944 23.18C204.344 23.18 203.104 22.75 202.224 21.89C201.344 21.03 200.904 19.8 200.904 18.2V3.62H203.784V18.08C203.784 18.94 203.994 19.6 204.414 20.06C204.854 20.52 205.474 20.75 206.274 20.75C207.174 20.75 207.924 20.5 208.524 20L209.424 22.07C208.984 22.45 208.454 22.73 207.834 22.91C207.234 23.09 206.604 23.18 205.944 23.18ZM198.204 9.47V7.1H208.344V9.47H198.204ZM217.466 23.18C216.146 23.18 214.886 23 213.686 22.64C212.506 22.28 211.576 21.84 210.896 21.32L212.096 19.04C212.776 19.5 213.616 19.89 214.616 20.21C215.616 20.53 216.636 20.69 217.676 20.69C219.016 20.69 219.976 20.5 220.556 20.12C221.156 19.74 221.456 19.21 221.456 18.53C221.456 18.03 221.276 17.64 220.916 17.36C220.556 17.08 220.076 16.87 219.476 16.73C218.896 16.59 218.246 16.47 217.526 16.37C216.806 16.25 216.086 16.11 215.366 15.95C214.646 15.77 213.986 15.53 213.386 15.23C212.786 14.91 212.306 14.48 211.946 13.94C211.586 13.38 211.406 12.64 211.406 11.72C211.406 10.76 211.676 9.92 212.216 9.2C212.756 8.48 213.516 7.93 214.496 7.55C215.496 7.15 216.676 6.95 218.036 6.95C219.076 6.95 220.126 7.08 221.186 7.34C222.266 7.58 223.146 7.93 223.826 8.39L222.596 10.67C221.876 10.19 221.126 9.86 220.346 9.68C219.566 9.5 218.786 9.41 218.006 9.41C216.746 9.41 215.806 9.62 215.186 10.04C214.566 10.44 214.256 10.96 214.256 11.6C214.256 12.14 214.436 12.56 214.796 12.86C215.176 13.14 215.656 13.36 216.236 13.52C216.836 13.68 217.496 13.82 218.216 13.94C218.936 14.04 219.656 14.18 220.376 14.36C221.096 14.52 221.746 14.75 222.326 15.05C222.926 15.35 223.406 15.77 223.766 16.31C224.146 16.85 224.336 17.57 224.336 18.47C224.336 19.43 224.056 20.26 223.496 20.96C222.936 21.66 222.146 22.21 221.126 22.61C220.106 22.99 218.886 23.18 217.466 23.18Z" fill="#F8F8F8"/>
  <path d="M104.04 23L112.89 10.82V13.76L104.46 2H108.87L115.14 10.7L113.34 10.73L119.55 2H123.78L115.41 13.55V10.73L124.32 23H119.82L113.22 13.76H114.99L108.48 23H104.04Z" fill="#DD4D1C"/>
</svg>
